<?xml version="1.0" standalone="no"?><!DOCTYPE svg PUBLIC "-//W3C//DTD SVG 1.1//EN" "http://www.w3.org/Graphics/SVG/1.1/DTD/svg11.dtd"><svg t="1733903346100" class="icon" viewBox="0 0 1024 1024" version="1.1" xmlns="http://www.w3.org/2000/svg" p-id="32401" xmlns:xlink="http://www.w3.org/1999/xlink" width="200" height="200"><path d="M757.53728938 63.25943656h-491.07457876c-112.18514063 0-203.20327406 90.95039906-203.20327406 203.20327406v491.07457876c0 112.18514063 91.01813344 203.20327406 203.20327406 203.20327406h491.07457876c112.18514063 0 203.20327406-91.01813344 203.20327406-203.20327407v-491.07457875c0-112.252875-91.01813344-203.20327406-203.20327407-203.20327406zM417.87285687 234.44803531h140.6302125l-30.22987406 127.66245656h-83.34720937l-27.05312907-123.36470718v-4.29774938z m70.31510625 555.03958219l-136.32907687-114.69808781 93.06709969-287.8069575h84.40386656l91.94270812 291.04804969-133.0845975 111.45699562z m183.88880251-188.25428625H633.44782344l-58.73929313-167.75107594 97.36823532 129.84689157v37.90418437z" p-id="32402" fill="#8a8a8a"></path></svg>