<?xml version="1.0" standalone="no"?><!DOCTYPE svg PUBLIC "-//W3C//DTD SVG 1.1//EN" "http://www.w3.org/Graphics/SVG/1.1/DTD/svg11.dtd"><svg t="1733902922497" class="icon" viewBox="0 0 1024 1024" version="1.1" xmlns="http://www.w3.org/2000/svg" p-id="29780" xmlns:xlink="http://www.w3.org/1999/xlink" width="200" height="200"><path d="M591.94231787 513.68640853c58.73832107-29.827056 99.10625067-90.80082453 99.10625066-161.06457493 0-99.56141653-81.0000064-180.561424-180.5625152-180.561424s-180.56033173 81.0000064-180.56033173 180.561424c0 70.26375147 40.36792853 131.23642773 99.1051584 161.06457493-102.02935893 34.15059307-175.76416427 130.618624-175.76416427 243.99330987 0 12.07010133 9.785536 21.8578208 21.8578208 21.8578208s21.8578208-9.7866272 21.8578208-21.8578208c0-117.72660267 95.7770944-213.50478827 213.50478827-213.50478827S723.99084053 639.95311573 723.99084053 757.6797184c0 12.07010133 9.785536 21.8578208 21.8578208 21.8578208s21.8578208-9.7866272 21.8578208-21.8578208C767.70538987 644.30503253 693.97167573 547.8380928 591.94231787 513.68640853zM373.64026987 352.6218336c0-75.4583264 61.38963947-136.84687467 136.8457824-136.84687467 75.4583264 0 136.84687467 61.38963947 136.84687466 136.84687467 0 75.45723413-61.38963947 136.8457824-136.84687466 136.8457824C435.02990933 489.4687072 373.64026987 428.07906773 373.64026987 352.6218336z" p-id="29781"></path><path d="M848.92915947 175.06974827C758.9316992 85.07447147 639.27527787 35.50933867 512 35.50933867S265.0672096 85.0733792 175.07084053 175.06974827C85.0733792 265.0683008 35.51043093 384.72363093 35.51043093 511.9989088s49.56294933 246.9327904 139.5604096 336.93025173 209.65388267 139.5604096 336.92915947 139.5604096 246.9316992-49.56294933 336.92915947-139.5604096S988.48956907 639.2741856 988.48956907 511.9989088 938.9266208 265.0672096 848.92915947 175.06974827zM512 944.77501973c-238.6328224 0-432.77501973-194.14110613-432.77501973-432.776112 0-238.6328224 194.14219733-432.77501973 432.77501973-432.77501973s432.77501973 194.14110613 432.77501973 432.77501973C944.77501973 750.6339136 750.6328224 944.77501973 512 944.77501973z" p-id="29782"></path></svg>